<svg width="783" height="678" viewBox="0 0 783 678" fill="none" xmlns="http://www.w3.org/2000/svg">
<path d="M21.5 430L209.063 158.769C219.889 143.114 233.802 129.451 251.589 122.675C280.293 111.741 318.613 104.698 356.438 114.103C417.212 129.215 409.887 208.113 365.605 252.395L154.026 463.974C135.446 482.554 121.852 506.329 121.709 532.605C121.313 605.216 156.933 689.539 304.5 636C439.067 587.177 449.118 463.866 443.283 377.494C440.454 335.612 457.765 284.779 498.3 295.688C527.692 303.598 566 327.842 627.5 364.5C702.629 409.281 733.928 292.988 757.083 167.489C765.194 123.531 712.793 92.6392 677.982 120.681V120.681C674.019 123.873 670.589 127.676 667.821 131.946L651.31 157.414C618.585 207.892 556.975 224.528 512.856 183.633C468.771 142.77 424.417 92.5563 406 68C374.8 26.4 352 23.3333 344.5 27" stroke="white" stroke-opacity="0.11" stroke-width="50"/>
</svg>
